<svg width="16" height="16" viewBox="0 0 16 16" fill="none" xmlns="http://www.w3.org/2000/svg">
    <path d="M8 14.5C11.5899 14.5 14.5 11.5899 14.5 8C14.5 4.41015 11.5899 1.5 8 1.5C4.41015 1.5 1.5 4.41015 1.5 8C1.5 11.5899 4.41015 14.5 8 14.5Z" fill="#EEE0FF" stroke="#7A63FB"/>
    <path fill-rule="evenodd" clip-rule="evenodd" d="M9.08714 9.08621C9.26933 8.07483 9.21183 7.01419 7.91544 6.79043C6.61905 6.56667 6.20229 7.92037 6.08384 8.57793C5.96292 9.24919 5.82089 10.5968 7.19828 10.8346C8.57568 11.0723 8.90496 10.0976 9.08714 9.08621ZM9.47196 6.93508C9.477 6.8613 9.65414 5.88293 10.0034 4L11 4.17202L9.5899 12L8.59325 11.828L8.72474 11.0981C8.26768 11.5209 7.65105 11.6654 6.87486 11.5314C5.71057 11.3305 4.69355 10.5717 5.08555 8.39554C5.47755 6.21941 6.92819 5.86737 7.86599 6.02923C8.4912 6.13714 9.02652 6.43909 9.47196 6.93508Z" fill="#7A63FB" fill-opacity="0.7"/>
</svg>
